PathFileType	4	(X/Y/Z)	C:\Git\powerlifing_model_clean\simulations\Test1\Session1\HC835B_STD_0001\marker_experimental.trc
DataRate	CameraRate	NumFrames	NumMarkers	Units	OrigDataRate	OrigDataStartFrame	OrigNumFrames
240.000000	240.000000	4	54	mm	240.000000	210	337
Frame#	Time	RPSI			LPSI			RASI			LASI			RGT			RTH1			RTH2			RTH3			RTH4			RLK			RMK			RSK1			RSK2			RSK3			RSK4			RLA			RMA			RCAL1			RCAL2			RCAL3			RST			RPT			RTN			RFMB			RSMB			RVMB			RFMH			RSMH			RVMH			RPM			LGT			LTH1			LTH2			LTH3			LTH4			LLK			LMK			LSK1			LSK2			LSK3			LSK4			LLA			LMA			LCAL1			LCAL2			LCAL3			LFMH			LVMH			RHJC			LHJC			RKJC			LKJC			RAJC			LAJC
		X1	Y1	Z1	X2	Y2	Z2	X3	Y3	Z3	X4	Y4	Z4	X5	Y5	Z5	X6	Y6	Z6	X7	Y7	Z7	X8	Y8	Z8	X9	Y9	Z9	X10	Y10	Z10	X11	Y11	Z11	X12	Y12	Z12	X13	Y13	Z13	X14	Y14	Z14	X15	Y15	Z15	X16	Y16	Z16	X17	Y17	Z17	X18	Y18	Z18	X19	Y19	Z19	X20	Y20	Z20	X21	Y21	Z21	X22	Y22	Z22	X23	Y23	Z23	X24	Y24	Z24	X25	Y25	Z25	X26	Y26	Z26	X27	Y27	Z27	X28	Y28	Z28	X29	Y29	Z29	X30	Y30	Z30	X31	Y31	Z31	X32	Y32	Z32	X33	Y33	Z33	X34	Y34	Z34	X35	Y35	Z35	X36	Y36	Z36	X37	Y37	Z37	X38	Y38	Z38	X39	Y39	Z39	X40	Y40	Z40	X41	Y41	Z41	X42	Y42	Z42	X43	Y43	Z43	X44	Y44	Z44	X45	Y45	Z45	X46	Y46	Z46	X47	Y47	Z47	X48	Y48	Z48	X49	Y49	Z49	X50	Y50	Z50	X51	Y51	Z51	X52	Y52	Z52	X53	Y53	Z53	X54	Y54	Z54
211	0.875000	494.816132	1162.672974	-357.978394	386.323975	1160.137329	-354.396271	554.837219	1105.048828	-561.804688	315.636230	1100.720581	-559.558228	636.959045	1023.907532	-452.887451	639.438416	836.285095	-463.466400	627.431580	819.205750	-520.617554	629.724976	753.457581	-478.186005	606.506653	737.201721	-529.432922	609.070374	552.707825	-459.432434	483.395874	538.677795	-449.178894	612.937317	307.640259	-361.804749	614.947388	288.024567	-420.129730	611.330444	249.787872	-372.783966	600.296509	231.833435	-428.765289	605.260925	114.929535	-359.565948	521.940491	124.208397	-404.496765	560.277954	95.789368	-304.948914	528.714844	58.411247	-314.490143	592.872009	59.073143	-308.870178	517.360413	76.351479	-380.830078	618.180115	72.299980	-367.271637	530.430115	94.495293	-438.600769	537.007935	78.127129	-469.591705	586.221741	101.741005	-477.640167	632.226990	47.761375	-410.318878	537.252869	50.714890	-527.424927	591.977051	65.626122	-537.679260	648.233826	42.233379	-490.620361	582.618042	53.052601	-596.978394	244.468918	1013.017883	-447.793915	238.880539	830.945496	-446.505280	241.985321	813.571533	-504.654877	242.966476	746.271667	-459.477722	262.886505	730.859436	-515.289124	265.519806	564.152344	-443.493530	396.548340	553.720947	-444.491302	257.397034	300.417847	-355.441742	251.304016	279.318695	-403.977356	257.232880	245.168701	-368.569092	267.511261	225.785690	-420.676086	259.419556	115.571548	-363.465759	349.420227	123.816513	-400.984406	306.710999	95.080482	-303.474426	275.857910	58.459099	-303.641632	334.197479	56.672218	-308.098206	344.699432	55.088543	-530.809326	229.708160	41.478512	-493.018127	523.370363	1041.713325	-480.170934	350.900743	1038.592555	-478.551182	546.233124	545.692810	-454.305664	331.034073	558.936646	-443.992416	563.600708	119.568966	-382.031357	304.419891	119.694031	-382.225082
212	0.879167	494.825409	1162.651001	-358.027771	386.338684	1160.143921	-354.425262	554.870178	1105.075562	-561.831177	315.644348	1100.697632	-559.595520	636.967834	1023.915894	-452.925964	639.423340	836.288513	-463.477081	627.445801	819.201111	-520.637512	629.747986	753.460938	-478.197906	606.530151	737.174561	-529.435669	609.100281	552.740479	-459.413483	483.399994	538.635193	-449.191772	612.938538	307.660706	-361.783569	614.975525	288.016296	-420.109894	611.341919	249.819321	-372.791901	600.339417	231.860916	-428.745331	605.240417	114.873291	-359.638824	521.937622	124.239029	-404.536743	560.301025	95.768280	-304.985168	528.694946	58.421997	-314.491913	592.876282	59.056789	-308.891632	517.367676	76.365364	-380.821259	618.195557	72.292152	-367.270416	530.438782	94.553680	-438.559204	537.029175	78.103249	-469.581360	586.240051	101.713509	-477.645477	632.118347	47.733810	-410.301941	537.322876	50.639183	-527.432983	592.000671	65.604126	-537.661804	648.269104	42.247128	-490.601593	582.623230	53.069645	-596.981201	244.474716	1013.008545	-447.804932	238.896729	830.959961	-446.525208	241.989960	813.538025	-504.677673	242.943207	746.288452	-459.506805	262.869110	730.899658	-515.325745	265.550568	564.171143	-443.500519	396.560272	553.708008	-444.492828	257.399658	300.436615	-355.434570	251.302338	279.335022	-403.974304	257.222534	245.178711	-368.575531	267.516266	225.774323	-420.665131	259.415100	115.508156	-363.483246	349.434814	123.829666	-400.991821	306.703400	95.123955	-303.445892	275.857452	58.491547	-303.651794	334.200378	56.677364	-308.108276	344.699341	55.094494	-530.781921	229.705734	41.484093	-493.033752	523.408409	1041.722228	-480.201493	350.922442	1038.565665	-478.589545	546.250137	545.687836	-454.302628	331.055420	558.939575	-443.996674	563.589020	119.556160	-382.087784	304.424957	119.668911	-382.237534
213	0.883333	494.822876	1162.679565	-358.054901	386.335327	1160.139893	-354.450775	554.875183	1105.075195	-561.867371	315.668335	1100.665283	-559.613586	637.026550	1023.945679	-452.946320	639.468567	836.325867	-463.478699	627.458557	819.200500	-520.640503	629.742676	753.456726	-478.190430	606.537231	737.167725	-529.400330	609.108948	552.723999	-459.407013	483.411316	538.632446	-449.164459	612.922241	307.645020	-361.773041	614.960388	288.029816	-420.111298	611.337708	249.790436	-372.762787	600.364502	231.867294	-428.753906	605.317322	114.854439	-359.646515	521.959412	124.259277	-404.511963	560.303894	95.764900	-304.981689	528.699707	58.422146	-314.488983	592.879395	59.082783	-308.895416	517.377258	76.351807	-380.851990	618.181824	72.292641	-367.276306	530.451843	94.541733	-438.564728	537.000977	78.141289	-469.621582	586.240295	101.736221	-477.645355	632.226135	47.779873	-410.295502	537.351990	50.661312	-527.424011	591.974670	65.628868	-537.670166	648.268433	42.233376	-490.604309	582.644592	53.052998	-596.969849	244.469254	1013.027527	-447.818207	238.898697	830.962402	-446.527954	241.989227	813.561157	-504.685669	242.989563	746.263672	-459.499969	262.871429	730.887268	-515.317383	265.565918	564.176208	-443.521851	396.552155	553.701538	-444.518463	257.398956	300.445465	-355.430115	251.309677	279.309509	-403.933197	257.251617	245.207611	-368.595490	267.539703	225.759033	-420.683868	259.417358	115.568787	-363.460938	349.465118	123.848709	-400.978668	306.699982	95.096230	-303.473938	275.874664	58.464611	-303.654816	334.201843	56.659279	-308.097290	344.698059	55.098652	-530.751892	229.722717	41.455612	-493.044128	523.431095	1041.733790	-480.226948	350.957703	1038.554147	-478.601920	546.260132	545.678223	-454.285736	331.059036	558.938873	-444.020157	563.638367	119.556858	-382.079239	304.441238	119.708748	-382.219803
214	0.887500	494.831146	1162.693604	-358.083771	386.343353	1160.151978	-354.478516	554.883179	1105.083862	-561.889587	315.670776	1100.684814	-559.659363	636.991394	1023.923340	-452.982300	639.426575	836.311096	-463.484131	627.450317	819.182190	-520.633240	629.751465	753.474243	-478.185730	606.523560	737.165710	-529.402771	609.144592	552.750366	-459.369507	483.446899	538.701172	-449.119537	612.952820	307.651093	-361.779510	614.972412	288.003021	-420.083923	611.379761	249.823822	-372.778412	600.352600	231.864197	-428.746277	605.294495	114.880661	-359.637909	521.964111	124.240860	-404.535583	560.279236	95.757561	-304.980194	528.706970	58.442341	-314.490601	592.887024	59.066441	-308.883850	517.376465	76.371994	-380.854034	618.200806	72.299263	-367.275757	530.430542	94.530045	-438.548676	537.025269	78.109207	-469.584259	586.229797	101.743103	-477.655853	632.170349	47.732510	-410.299713	537.281555	50.722828	-527.477417	592.000793	65.614342	-537.666199	648.256226	42.230797	-490.610016	582.641296	53.091354	-596.971497	244.487137	1013.011963	-447.849457	238.909973	830.964600	-446.514801	241.997253	813.557251	-504.672150	243.000198	746.268311	-459.517944	262.923645	730.861877	-515.308350	265.564209	564.170898	-443.523682	396.592896	553.708252	-444.504761	257.420044	300.418182	-355.465698	251.353363	279.287567	-403.990875	257.248474	245.176819	-368.563934	267.523315	225.818405	-420.649445	259.419678	115.563332	-363.467255	349.436615	123.837379	-400.985565	306.715515	95.116989	-303.446686	275.863739	58.477501	-303.636475	334.211304	56.666306	-308.105164	344.704895	55.117447	-530.805908	229.713440	41.478504	-493.050934	523.427307	1041.741755	-480.251390	350.950224	1038.569951	-478.643352	546.295746	545.725769	-454.244522	331.078552	558.939575	-444.014221	563.629303	119.560760	-382.086746	304.428146	119.700356	-382.226410
